<svg height="512pt" viewBox="0 0 512 512" width="512pt" xmlns="http://www.w3.org/2000/svg"><g fill="#4482c3"><path d="m450.207031 495.933594c-2.339843 0-4.585937-.929688-6.238281-2.585938l-17.65625-17.65625c-2.972656-2.972656-3.441406-7.628906-1.113281-11.128906l20.578125-30.898438c1.738281-2.644531 4.761718-4.15625 7.921875-3.960937 3.15625.199219 5.96875 2.070313 7.371093 4.90625 1.398438 2.839844 1.171876 6.210937-.59375 8.835937l-16.5625 24.875 12.535157 12.542969c2.523437 2.527344 3.28125 6.324219 1.914062 9.621094-1.367187 3.296875-4.585937 5.449219-8.15625 5.449219zm0 0"/><path d="m485.519531 495.933594c-3.570312 0-6.789062-2.152344-8.152343-5.449219-1.367188-3.296875-.613282-7.09375 1.910156-9.621094l12.535156-12.542969-16.558594-24.875c-1.90625-2.621093-2.222656-6.074218-.828125-9 1.398438-2.921874 4.285157-4.847656 7.519531-5.007812 3.238282-.164062 6.304688 1.457031 7.988282 4.226562l20.578125 30.898438c2.324219 3.5 1.859375 8.15625-1.113281 11.128906l-17.65625 17.65625c-1.648438 1.652344-3.886719 2.582032-6.222657 2.585938zm0 0"/><path d="m450.207031 495.933594c-2.339843 0-4.585937-.929688-6.238281-2.585938l-17.65625-17.65625c-2.972656-2.972656-3.441406-7.628906-1.113281-11.128906l20.578125-30.898438c1.738281-2.644531 4.761718-4.15625 7.921875-3.960937 3.15625.199219 5.96875 2.070313 7.371093 4.90625 1.398438 2.839844 1.171876 6.210937-.59375 8.835937l-16.5625 24.875 12.535157 12.542969c2.523437 2.527344 3.28125 6.324219 1.914062 9.621094-1.367187 3.296875-4.585937 5.449219-8.15625 5.449219zm0 0"/><path d="m485.519531 495.933594c-3.570312 0-6.789062-2.152344-8.152343-5.449219-1.367188-3.296875-.613282-7.09375 1.910156-9.621094l12.535156-12.542969-16.558594-24.875c-1.90625-2.621093-2.222656-6.074218-.828125-9 1.398438-2.921874 4.285157-4.847656 7.519531-5.007812 3.238282-.164062 6.304688 1.457031 7.988282 4.226562l20.578125 30.898438c2.324219 3.5 1.859375 8.15625-1.113281 11.128906l-17.65625 17.65625c-1.648438 1.652344-3.886719 2.582032-6.222657 2.585938zm0 0"/></g><path d="m494.347656 416.484375c0 14.628906-11.859375 26.484375-26.484375 26.484375s-26.480469-11.855469-26.480469-26.484375c0-14.625 11.855469-26.480469 26.480469-26.480469s26.484375 11.855469 26.484375 26.480469zm0 0" fill="#71c285"/><path d="m500.96875 416.484375c0 18.285156-14.820312 33.105469-33.105469 33.105469-18.28125 0-33.101562-14.820313-33.101562-33.105469 0-18.28125 14.820312-33.101563 33.101562-33.101563 18.285157 0 33.105469 14.820313 33.105469 33.101563zm0 0" fill="#2c3e50"/><path d="m457.890625 252.734375.441406-.175781 25.332031 75.652344-36.808593.351562-18.628907-53.320312zm0 0" fill="#4482c3"/><path d="m405.71875 265.445312c5.757812 6.277344 13.902344 9.835938 22.421875 9.796876h.085937c13.808594-.03125 25.914063-9.222657 29.664063-22.507813.742187-2.734375 1.128906-5.554687 1.144531-8.386719.011719-9.152344-4.066406-17.828125-11.121094-23.65625l-41.402343 41.398438c-.304688.316406-.628907.613281-.96875.882812zm0 0" fill="#2c3e50"/><path d="m450.207031 319.382812h35.3125c9.75 0 17.65625 7.902344 17.65625 17.65625v35.308594c0 9.75-7.90625 17.65625-17.65625 17.65625h-35.3125c-9.75 0-17.652343-7.90625-17.652343-17.65625v-35.308594c0-9.753906 7.902343-17.65625 17.652343-17.65625zm0 0" fill="#285680"/><path d="m61.796875 495.933594c-3.570313 0-6.789063-2.152344-8.15625-5.449219s-.609375-7.09375 1.914063-9.621094l12.535156-12.542969-16.5625-24.875c-1.90625-2.621093-2.222656-6.074218-.824219-9 1.394531-2.921874 4.28125-4.847656 7.519531-5.007812 3.234375-.164062 6.300782 1.457031 7.984375 4.226562l20.578125 30.898438c2.328125 3.5 1.863282 8.15625-1.113281 11.128906l-17.652344 17.65625c-1.652343 1.652344-3.890625 2.582032-6.222656 2.585938zm0 0" fill="#4482c3"/><path d="m26.484375 495.933594c-2.339844 0-4.585937-.929688-6.242187-2.585938l-17.652344-17.65625c-2.976563-2.972656-3.441406-7.628906-1.113282-11.128906l20.578126-30.898438c1.738281-2.644531 4.761718-4.15625 7.917968-3.960937 3.160156.199219 5.972656 2.070313 7.371094 4.90625 1.402344 2.839844 1.175781 6.210937-.59375 8.835937l-16.558594 24.875 12.535156 12.542969c2.523438 2.527344 3.277344 6.324219 1.910157 9.621094-1.363281 3.296875-4.582031 5.449219-8.152344 5.449219zm0 0" fill="#4482c3"/><path d="m61.796875 495.933594c-3.570313 0-6.789063-2.152344-8.15625-5.449219s-.609375-7.09375 1.914063-9.621094l12.535156-12.542969-16.5625-24.875c-1.90625-2.621093-2.222656-6.074218-.824219-9 1.394531-2.921874 4.28125-4.847656 7.519531-5.007812 3.234375-.164062 6.300782 1.457031 7.984375 4.226562l20.578125 30.898438c2.328125 3.5 1.863282 8.15625-1.113281 11.128906l-17.652344 17.65625c-1.652343 1.652344-3.890625 2.582032-6.222656 2.585938zm0 0" fill="#4482c3"/><path d="m26.484375 495.933594c-2.339844 0-4.585937-.929688-6.242187-2.585938l-17.652344-17.65625c-2.976563-2.972656-3.441406-7.628906-1.113282-11.128906l20.578126-30.898438c1.738281-2.644531 4.761718-4.15625 7.917968-3.960937 3.160156.199219 5.972656 2.070313 7.371094 4.90625 1.402344 2.839844 1.175781 6.210937-.59375 8.835937l-16.558594 24.875 12.535156 12.542969c2.523438 2.527344 3.277344 6.324219 1.910157 9.621094-1.363281 3.296875-4.582031 5.449219-8.152344 5.449219zm0 0" fill="#4482c3"/><path d="m70.621094 416.484375c0 14.628906-11.855469 26.484375-26.480469 26.484375s-26.484375-11.855469-26.484375-26.484375c0-14.625 11.859375-26.480469 26.484375-26.480469s26.480469 11.855469 26.480469 26.480469zm0 0" fill="#71c285"/><path d="m77.242188 416.484375c0 18.285156-14.820313 33.105469-33.101563 33.105469-18.285156 0-33.105469-14.820313-33.105469-33.105469 0-18.28125 14.820313-33.101563 33.105469-33.101563 18.28125 0 33.101563 14.820313 33.101563 33.101563zm0 0" fill="#2c3e50"/><path d="m54.113281 252.734375-.441406-.175781-25.332031 75.652344 36.808594.351562 18.628906-53.320312zm0 0" fill="#4482c3"/><path d="m106.460938 262.972656c-.339844-.269531-.664063-.566406-.96875-.882812l-41.402344-41.398438c-7.054688 5.828125-11.132813 14.503906-11.121094 23.65625.015625 2.832032.402344 5.652344 1.144531 8.386719 3.75 13.285156 15.855469 22.476563 29.664063 22.507813h.085937c8.519531.039062 16.664063-3.519532 22.421875-9.796876zm0 0" fill="#2c3e50"/><path d="m61.796875 390.003906h-35.3125c-9.75 0-17.65625-7.90625-17.65625-17.65625v-35.308594c0-9.753906 7.90625-17.65625 17.65625-17.65625h35.3125c9.75 0 17.652344 7.902344 17.652344 17.65625v35.308594c0 9.75-7.902344 17.65625-17.652344 17.65625zm0 0" fill="#285680"/><path d="m203.035156 219.585938-115.277344-36.679688c-14.566406-14.710938-29.308593-29.304688-44.226562-43.785156l-2.296875-2.292969c9.871094-14.933594 22.589844-27.769531 37.429687-37.78125h.175782c9.625 9.53125 19.070312 18.976563 28.515625 28.511719 9.445312 9.535156 18.890625 19.066406 28.246093 28.691406v-.441406l.441407.441406zm0 0" fill="#24ae5f"/><path d="m78.664062 99.046875c-14.839843 10.011719-27.558593 22.847656-37.429687 37.78125l-.261719-.265625c-8.476562-8.210938-17.039062-16.417969-25.691406-24.628906-3.390625-3.246094-5.339844-7.71875-5.40625-12.417969-.066406-4.695313 1.753906-9.222656 5.054688-12.5625l12.710937-12.714844c6.632813-6.53125 17.105469-7.0625 24.363281-1.234375l.707032.707032c0 .085937.089843.085937.175781.175781 2.207031 2.207031 4.503906 4.324219 6.796875 6.53125l.265625.265625c2.03125 1.941406 4.0625 3.972656 6.003906 5.914062 4.324219 4.148438 8.472656 8.300782 12.710937 12.449219zm0 0" fill="#7ed09e"/><path d="m143.8125 80.332031c-2.738281 26.570313 38.664062 97.457031 35.929688 124.027344-17.746094-18.1875-79.980469-80.507813-98.253907-98.429687-.882812-.882813-1.765625-1.675782-2.648437-2.46875h-.175782c-4.238281-4.414063-8.296874-8.386719-12.535156-12.449219-2.03125-2.03125-4.058594-4.058594-6.089844-6.003907 11.484376-17.617187 26.515626-32.652343 44.136719-44.136718l.175781.175781c2.207032 2.121094 4.328126 4.238281 6.445313 6.355469 11.121094 10.949218 22.128906 21.921875 33.015625 32.929687zm0 0" fill="#4fba6f"/><path d="m104.167969 40.871094c-17.621094 11.484375-32.652344 26.519531-44.136719 44.136718l-.265625-.261718-6.796875-6.535156c-.089844-.085938-.179688-.085938-.179688-.175782-.242187-.230468-.507812-.4375-.792968-.617187-7.414063-7.148438-14.917969-14.300781-22.332032-21.363281-4.019531-3.1875-6.578124-7.867188-7.09375-12.972657-.515624-5.105469 1.054688-10.199219 4.355469-14.128906 6.355469-6.265625 12.800781-12.621094 19.246094-18.890625 8.449219-6.964844 20.878906-6.070312 28.246094 2.03125 9.984375 9.535156 19.960937 19.15625 29.75 28.777344zm0 0" fill="#4c8056"/><path d="m310.007812 219.585938 115.28125-36.679688c14.566407-14.710938 29.308594-29.304688 44.226563-43.785156l2.292969-2.292969c-9.871094-14.933594-22.589844-27.769531-37.425782-37.78125h-.179687c-9.621094 9.53125-19.066406 18.976563-28.511719 28.511719-9.445312 9.535156-18.890625 19.066406-28.25 28.691406v-.441406l-.441406.441406zm0 0" fill="#24ae5f"/><path d="m434.382812 99.046875c14.835938 10.011719 27.554688 22.847656 37.425782 37.78125l.265625-.265625c8.476562-8.210938 17.039062-16.417969 25.6875-24.628906 3.394531-3.246094 5.34375-7.71875 5.410156-12.417969.066406-4.695313-1.757813-9.222656-5.054687-12.5625l-12.710938-12.714844c-6.632812-6.53125-17.105469-7.0625-24.367188-1.234375l-.703124.707032c0 .085937-.089844.085937-.179688.175781-2.207031 2.207031-4.5 4.324219-6.796875 6.53125l-.265625.265625c-2.027344 1.941406-4.058594 3.972656-6 5.914062-4.328125 4.148438-8.476562 8.300782-12.710938 12.449219zm0 0" fill="#7ed09e"/><path d="m369.234375 80.332031c2.734375 26.570313-38.664063 97.457031-35.929687 124.027344 17.742187-18.1875 79.976562-80.507813 98.25-98.429687.882812-.882813 1.765624-1.675782 2.648437-2.46875h.179687c4.234376-4.414063 8.296876-8.386719 12.535157-12.449219 2.027343-2.03125 4.058593-4.058594 6.089843-6.003907-11.484374-17.617187-26.519531-32.652343-44.136718-44.136718l-.179688.175781c-2.207031 2.121094-4.324218 4.238281-6.441406 6.355469-11.125 10.949218-22.128906 21.921875-33.015625 32.929687zm0 0" fill="#4fba6f"/><path d="m408.871094 40.871094c17.617187 11.484375 32.652344 26.519531 44.136718 44.136718l.265626-.261718 6.796874-6.535156c.085938-.085938.175782-.085938.175782-.175782.242187-.230468.507812-.4375.792968-.617187 7.417969-7.148438 14.917969-14.300781 22.335938-21.363281 4.019531-3.1875 6.574219-7.867188 7.089844-12.972657s-1.054688-10.199219-4.355469-14.128906c-6.355469-6.265625-12.796875-12.621094-19.242187-18.890625-8.453126-6.964844-20.878907-6.070312-28.25 2.03125-9.972657 9.535156-19.949219 19.15625-29.746094 28.777344zm0 0" fill="#4c8056"/><path d="m405.542969 270.210938c.339843-.269532.664062-.566407.96875-.882813l41.402343-41.398437 8.5625-8.5625c3.421876-3.445313 3.421876-9.003907 0-12.449219l-12.535156-12.445313c-18.785156-18.898437-48.722656-20.792968-69.738281-4.414062h-236.402344c-21.015625-16.378906-50.953125-14.484375-69.738281 4.414062l-12.535156 12.445313c-3.421875 3.445312-3.421875 9.003906 0 12.449219l8.5625 8.5625 41.402344 41.398437c.304687.316406.628906.613281.96875.882813zm0 0" fill="#4482c3"/><path d="m366.347656 388.414062c-.707031 68.414063-49.875 123.585938-110.34375 123.585938-60.472656 0-109.640625-55.171875-110.347656-123.585938zm0 0" fill="#2c3e50"/><path d="m289.988281 428.578125c.890625 2.707031 1.335938 5.539063 1.324219 8.386719-1.304688 18.238281-17.058594 32.023437-35.308594 30.898437-18.253906 1.125-34.007812-12.660156-35.3125-30.898437-.011718-2.847656.433594-5.679688 1.324219-8.386719zm0 0" fill="#ff5364"/><path d="m211.863281 194.207031 44.140625-17.65625 44.136719 17.65625 71.0625-7.855469c1.058594 1.234376 2.027344 2.46875 3 3.707032 11.59375 14.703125 20.285156 31.480468 25.601563 49.433594 3.035156 9.996093 4.960937 20.300781 5.738281 30.71875.101562.820312.160156 1.648437.175781 2.472656.265625 3.265625.351562 6.53125.351562 9.800781.066407 24.640625-6 48.910156-17.65625 70.617187l-26.128906 35.3125c-19.8125 19.957032-44.882812 33.886719-72.296875 40.164063-22.347656 5.296875-45.625 5.296875-67.972656 0-27.414063-6.277344-52.484375-20.207031-72.296875-40.164063l-26.128906-35.3125c-11.65625-21.707031-17.722656-45.976562-17.65625-70.617187 0-3.269531.085937-6.535156.351562-9.800781.015625-.824219.074219-1.652344.175782-2.472656.777343-10.417969 2.703124-20.722657 5.738281-30.71875 5.316406-17.953126 14.007812-34.730469 25.601562-49.433594.972657-1.238282 1.941407-2.472656 3-3.707032zm0 0" fill="#285680"/><path d="m379.410156 158.015625c-2.519531 13.351563-7.84375 26.019531-15.625 37.164063-21.449218 31.070312-61.085937 78.476562-106.371094 78.476562h-2.824218c-45.285156 0-84.921875-47.40625-106.371094-78.476562-7.78125-11.144532-13.105469-23.8125-15.625-37.164063-.746094-3.824219 1.074219-7.683594 4.5-9.535156 2.503906-1.429688 5.558594-1.496094 8.121094-.175781l75.476562 41.929687c4.339844 2.179687 9.625.445313 11.828125-3.882813l2.472657-4.945312c1.476562-2.984375 4.527343-4.871094 7.855468-4.855469h26.308594c3.328125-.015625 6.378906 1.871094 7.855469 4.855469l2.472656 4.945312c2.203125 4.328126 7.488281 6.0625 11.828125 3.882813l75.476562-41.929687c2.5625-1.320313 5.617188-1.253907 8.121094.175781 3.425782 1.851562 5.246094 5.710937 4.5 9.535156zm0 0" fill="#2c3e50"/><path d="m379.589844 113.699219c.675781-42.761719-26.324219-81.070313-66.828125-94.808594h-113.519531c-40.503907 13.738281-67.503907 52.046875-66.828126 94.808594zm0 0" fill="#4482c3"/><path d="m379.589844 113.699219v1.058593c-.007813 11.402344-1.582032 22.75-4.679688 33.722657-2.503906-1.429688-5.558594-1.496094-8.121094-.175781l-75.476562 41.929687c-4.339844 2.179687-9.625.445313-11.828125-3.882813l-2.472656-4.945312c-1.476563-2.984375-4.527344-4.871094-7.855469-4.855469h-26.308594c-3.328125-.015625-6.378906 1.871094-7.855468 4.855469l-2.472657 4.945312c-2.203125 4.328126-7.488281 6.0625-11.828125 3.882813l-75.476562-41.929687c-2.5625-1.320313-5.617188-1.253907-8.121094.175781-3.097656-10.972657-4.671875-22.320313-4.679688-33.722657v-1.058593c16.597657-12.976563 55.085938-22.597657 101.785157-24.894531h43.605469c46.699218 2.296874 85.1875 11.917968 101.785156 24.894531zm0 0" fill="#7ed09e"/><path d="m256.003906 317.792969h114.757813c9.738281.027343 17.625 7.917969 17.652343 17.65625v35.308593c-.027343 9.738282-7.914062 17.625-17.652343 17.65625h-229.519531c-9.738282-.03125-17.625-7.917968-17.652344-17.65625v-35.308593c.027344-9.738281 7.914062-17.628907 17.652344-17.65625zm0 0" fill="#4482c3"/><path d="m220.691406 158.898438c-3.570312-.003907-6.789062-2.152344-8.152344-5.453126-1.367187-3.296874-.613281-7.09375 1.910157-9.617187l17.65625-17.65625c3.464843-3.34375 8.96875-3.296875 12.375.109375 3.40625 3.402344 3.453125 8.910156.109375 12.375l-17.65625 17.652344c-1.65625 1.65625-3.902344 2.585937-6.242188 2.589844zm0 0" fill="#4fba6f"/><path d="m185.382812 141.242188c-3.570312 0-6.789062-2.152344-8.15625-5.449219-1.363281-3.300781-.609374-7.09375 1.914063-9.621094l8.828125-8.828125c3.460938-3.34375 8.96875-3.296875 12.375.109375 3.402344 3.40625 3.453125 8.910156.105469 12.375l-8.828125 8.828125c-1.652344 1.652344-3.898438 2.585938-6.238282 2.585938zm0 0" fill="#4fba6f"/><path d="m167.726562 353.101562c0 4.878907-3.953124 8.828126-8.828124 8.828126s-8.828126-3.949219-8.828126-8.828126c0-4.875 3.953126-8.824218 8.828126-8.824218s8.828124 3.949218 8.828124 8.824218zm0 0" fill="#ff5364"/><path d="m203.035156 353.101562c0 4.878907-3.949218 8.828126-8.828125 8.828126-4.875 0-8.824219-3.949219-8.824219-8.828126 0-4.875 3.949219-8.824218 8.824219-8.824218 4.878907 0 8.828125 3.949218 8.828125 8.824218zm0 0" fill="#ff5364"/><path d="m238.347656 353.101562c0 4.878907-3.953125 8.828126-8.828125 8.828126s-8.828125-3.949219-8.828125-8.828126c0-4.875 3.953125-8.824218 8.828125-8.824218s8.828125 3.949218 8.828125 8.824218zm0 0" fill="#ff5364"/><path d="m353.105469 361.929688h-79.449219c-4.875 0-8.828125-3.949219-8.828125-8.828126 0-4.875 3.953125-8.824218 8.828125-8.824218h79.449219c4.875 0 8.828125 3.949218 8.828125 8.824218 0 4.878907-3.953125 8.828126-8.828125 8.828126zm0 0" fill="#ff5364"/><path d="m238.347656 97.101562h35.308594l38.789062-77.582031c1.253907-2.507812 1.246094-5.460937-.027343-7.957031-1.269531-2.496094-3.652344-4.242188-6.417969-4.703125l-32.464844-5.410156c-5.796875-.964844-11.660156-1.449219-17.53125-1.449219-5.875 0-11.738281.484375-17.535156 1.449219l-32.464844 5.410156c-2.765625.460937-5.148437 2.207031-6.417968 4.703125-1.273438 2.496094-1.28125 5.449219-.027344 7.957031zm0 0" fill="#285680"/><path d="m238.347656 238.34375c-4.875 0-8.828125-3.949219-8.828125-8.828125v-8.824219c0-4.878906 3.953125-8.828125 8.828125-8.828125s8.828125 3.949219 8.828125 8.828125v8.824219c0 4.878906-3.953125 8.828125-8.828125 8.828125zm0 0" fill="#ff5364"/><path d="m273.65625 238.34375c-4.875 0-8.828125-3.949219-8.828125-8.828125v-8.824219c0-4.878906 3.953125-8.828125 8.828125-8.828125s8.828125 3.949219 8.828125 8.828125v8.824219c0 4.878906-3.953125 8.828125-8.828125 8.828125zm0 0" fill="#ff5364"/></svg>